{
    "asset" : {
        "generator" : "Khronos glTF Blender I/O v1.8.19",
        "version" : "2.0"
    },
    "scene" : 0,
    "scenes" : [
        {
            "name" : "Scene",
            "nodes" : [
                4,
                5,
                8,
                13
            ]
        }
    ],
    "nodes" : [
        {
            "mesh" : 0,
            "name" : "node_id37",
            "rotation" : [
                0.009702589362859726,
                -0.04216177389025688,
                -0.000409461761591956,
                0.9990636706352234
            ],
            "scale" : [
                0.029917895793914795,
                0.02134513109922409,
                0.02134512923657894
            ],
            "translation" : [
                -0.0018329699523746967,
                -0.26242560148239136,
                0.22693824768066406
            ]
        },
        {
            "mesh" : 1,
            "name" : "mesh_id58",
            "translation" : [
                -75.73467254638672,
                24.60986328125,
                7.5
            ]
        },
        {
            "mesh" : 2,
            "name" : "mesh_id59",
            "translation" : [
                -75.73467254638672,
                -35.39013671875,
                7.5
            ]
        },
        {
            "children" : [
                1,
                2
            ],
            "name" : "node_id53",
            "scale" : [
                0.0012500000884756446,
                0.0012500000884756446,
                0.0012500000884756446
            ],
            "translation" : [
                -0.07833529263734818,
                0.12375986576080322,
                0.2500576376914978
            ]
        },
        {
            "children" : [
                0,
                3
            ],
            "name" : "root"
        },
        {
            "mesh" : 3,
            "name" : "node_id37.001",
            "rotation" : [
                0.009702589362859726,
                -0.04216177389025688,
                -0.000409461761591956,
                0.9990636706352234
            ],
            "scale" : [
                0.029917895793914795,
                0.02134513109922409,
                0.02134512923657894
            ],
            "translation" : [
                -0.0018329699523746967,
                -0.26242560148239136,
                0.22693824768066406
            ]
        },
        {
            "mesh" : 4,
            "name" : "mesh_id58.001",
            "translation" : [
                -75.73467254638672,
                24.60986328125,
                7.5
            ]
        },
        {
            "mesh" : 5,
            "name" : "mesh_id59.001",
            "translation" : [
                -75.73467254638672,
                -35.39013671875,
                7.5
            ]
        },
        {
            "children" : [
                6,
                7
            ],
            "name" : "node_id53.001",
            "scale" : [
                0.0012500000884756446,
                0.0012500000884756446,
                0.0012500000884756446
            ],
            "translation" : [
                -0.07833529263734818,
                0.12375986576080322,
                0.2500576376914978
            ]
        },
        {
            "mesh" : 6,
            "name" : "node_id37.002",
            "rotation" : [
                0.009702589362859726,
                -0.04216177389025688,
                -0.000409461761591956,
                0.9990636706352234
            ],
            "scale" : [
                0.029917895793914795,
                0.02134513109922409,
                0.02134512923657894
            ],
            "translation" : [
                -0.0018329699523746967,
                -0.26242560148239136,
                0.22693824768066406
            ]
        },
        {
            "mesh" : 7,
            "name" : "mesh_id58.002",
            "translation" : [
                -75.73467254638672,
                24.60986328125,
                7.5
            ]
        },
        {
            "mesh" : 8,
            "name" : "mesh_id59.002",
            "translation" : [
                -75.73467254638672,
                -35.39013671875,
                7.5
            ]
        },
        {
            "children" : [
                10,
                11
            ],
            "name" : "node_id53.002",
            "scale" : [
                0.0012500000884756446,
                0.0012500000884756446,
                0.0012500000884756446
            ],
            "translation" : [
                -0.07833529263734818,
                0.12375986576080322,
                0.2500576376914978
            ]
        },
        {
            "children" : [
                9,
                12
            ],
            "name" : "root.001"
        }
    ],
    "materials" : [
        {
            "alphaCutoff" : 0.5,
            "alphaMode" : "MASK",
            "doubleSided" : true,
            "name" : "68",
            "pbrMetallicRoughness" : {}
        },
        {
            "doubleSided" : true,
            "name" : "70",
            "pbrMetallicRoughness" : {}
        },
        {
            "doubleSided" : true,
            "name" : "72",
            "pbrMetallicRoughness" : {}
        },
        {
            "alphaCutoff" : 0.5,
            "alphaMode" : "MASK",
            "doubleSided" : true,
            "name" : "68.001",
            "pbrMetallicRoughness" : {}
        },
        {
            "doubleSided" : true,
            "name" : "70.001",
            "pbrMetallicRoughness" : {}
        },
        {
            "doubleSided" : true,
            "name" : "72.001",
            "pbrMetallicRoughness" : {}
        },
        {
            "alphaCutoff" : 0.5,
            "alphaMode" : "MASK",
            "doubleSided" : true,
            "name" : "68.002",
            "pbrMetallicRoughness" : {}
        },
        {
            "doubleSided" : true,
            "name" : "70.002",
            "pbrMetallicRoughness" : {}
        },
        {
            "doubleSided" : true,
            "name" : "72.002",
            "pbrMetallicRoughness" : {}
        }
    ],
    "meshes" : [
        {
            "name" : "mesh_id38",
            "primitives" : [
                {
                    "attributes" : {
                        "POSITION" : 0,
                        "NORMAL" : 1,
                        "TEXCOORD_0" : 2,
                        "COLOR_0" : 3
                    },
                    "indices" : 4,
                    "material" : 0
                }
            ]
        },
        {
            "name" : "mesh_id58",
            "primitives" : [
                {
                    "attributes" : {
                        "POSITION" : 5,
                        "NORMAL" : 6
                    },
                    "indices" : 7,
                    "material" : 1
                }
            ]
        },
        {
            "name" : "mesh_id59",
            "primitives" : [
                {
                    "attributes" : {
                        "POSITION" : 8,
                        "NORMAL" : 9
                    },
                    "indices" : 10,
                    "material" : 2
                }
            ]
        },
        {
            "name" : "mesh_id38.001",
            "primitives" : [
                {
                    "attributes" : {
                        "POSITION" : 11,
                        "NORMAL" : 12,
                        "TEXCOORD_0" : 13,
                        "COLOR_0" : 14
                    },
                    "indices" : 4,
                    "material" : 3
                }
            ]
        },
        {
            "name" : "mesh_id58.001",
            "primitives" : [
                {
                    "attributes" : {
                        "POSITION" : 15,
                        "NORMAL" : 16
                    },
                    "indices" : 7,
                    "material" : 4
                }
            ]
        },
        {
            "name" : "mesh_id59.001",
            "primitives" : [
                {
                    "attributes" : {
                        "POSITION" : 17,
                        "NORMAL" : 18
                    },
                    "indices" : 10,
                    "material" : 5
                }
            ]
        },
        {
            "name" : "mesh_id38.002",
            "primitives" : [
                {
                    "attributes" : {
                        "POSITION" : 19,
                        "NORMAL" : 20,
                        "TEXCOORD_0" : 21,
                        "COLOR_0" : 22
                    },
                    "indices" : 4,
                    "material" : 6
                }
            ]
        },
        {
            "name" : "mesh_id58.002",
            "primitives" : [
                {
                    "attributes" : {
                        "POSITION" : 23,
                        "NORMAL" : 24
                    },
                    "indices" : 7,
                    "material" : 7
                }
            ]
        },
        {
            "name" : "mesh_id59.002",
            "primitives" : [
                {
                    "attributes" : {
                        "POSITION" : 25,
                        "NORMAL" : 26
                    },
                    "indices" : 10,
                    "material" : 8
                }
            ]
        }
    ],
    "accessors" : [
        {
            "bufferView" : 0,
            "componentType" : 5126,
            "count" : 139,
            "max" : [
                8.531570434570312,
                25.401782989501953,
                1.2830324172973633
            ],
            "min" : [
                -8.50710678100586,
                0,
                -0.042987823486328125
            ],
            "type" : "VEC3"
        },
        {
            "bufferView" : 1,
            "componentType" : 5126,
            "count" : 139,
            "type" : "VEC3"
        },
        {
            "bufferView" : 2,
            "componentType" : 5126,
            "count" : 139,
            "type" : "VEC2"
        },
        {
            "bufferView" : 3,
            "componentType" : 5123,
            "count" : 139,
            "normalized" : true,
            "type" : "VEC4"
        },
        {
            "bufferView" : 4,
            "componentType" : 5123,
            "count" : 204,
            "type" : "SCALAR"
        },
        {
            "bufferView" : 5,
            "componentType" : 5126,
            "count" : 3167,
            "max" : [
                151.22256469726562,
                18.807031631469727,
                0
            ],
            "min" : [
                0.24677734076976776,
                -8.299511909484863,
                -15
            ],
            "type" : "VEC3"
        },
        {
            "bufferView" : 6,
            "componentType" : 5126,
            "count" : 3167,
            "type" : "VEC3"
        },
        {
            "bufferView" : 7,
            "componentType" : 5123,
            "count" : 7908,
            "type" : "SCALAR"
        },
        {
            "bufferView" : 8,
            "componentType" : 5126,
            "count" : 1619,
            "max" : [
                60.66826248168945,
                22.84638786315918,
                0
            ],
            "min" : [
                1.75341796875,
                -8.026758193969727,
                -15
            ],
            "type" : "VEC3"
        },
        {
            "bufferView" : 9,
            "componentType" : 5126,
            "count" : 1619,
            "type" : "VEC3"
        },
        {
            "bufferView" : 10,
            "componentType" : 5123,
            "count" : 3972,
            "type" : "SCALAR"
        },
        {
            "bufferView" : 11,
            "componentType" : 5126,
            "count" : 139,
            "max" : [
                8.531570434570312,
                25.401782989501953,
                1.2830324172973633
            ],
            "min" : [
                -8.50710678100586,
                0,
                -0.042987823486328125
            ],
            "type" : "VEC3"
        },
        {
            "bufferView" : 12,
            "componentType" : 5126,
            "count" : 139,
            "type" : "VEC3"
        },
        {
            "bufferView" : 13,
            "componentType" : 5126,
            "count" : 139,
            "type" : "VEC2"
        },
        {
            "bufferView" : 14,
            "componentType" : 5123,
            "count" : 139,
            "normalized" : true,
            "type" : "VEC4"
        },
        {
            "bufferView" : 15,
            "componentType" : 5126,
            "count" : 3167,
            "max" : [
                151.22256469726562,
                18.807031631469727,
                0
            ],
            "min" : [
                0.24677734076976776,
                -8.299511909484863,
                -15
            ],
            "type" : "VEC3"
        },
        {
            "bufferView" : 16,
            "componentType" : 5126,
            "count" : 3167,
            "type" : "VEC3"
        },
        {
            "bufferView" : 17,
            "componentType" : 5126,
            "count" : 1619,
            "max" : [
                60.66826248168945,
                22.84638786315918,
                0
            ],
            "min" : [
                1.75341796875,
                -8.026758193969727,
                -15
            ],
            "type" : "VEC3"
        },
        {
            "bufferView" : 18,
            "componentType" : 5126,
            "count" : 1619,
            "type" : "VEC3"
        },
        {
            "bufferView" : 19,
            "componentType" : 5126,
            "count" : 139,
            "max" : [
                8.531570434570312,
                25.401782989501953,
                1.2830324172973633
            ],
            "min" : [
                -8.50710678100586,
                0,
                -0.042987823486328125
            ],
            "type" : "VEC3"
        },
        {
            "bufferView" : 20,
            "componentType" : 5126,
            "count" : 139,
            "type" : "VEC3"
        },
        {
            "bufferView" : 21,
            "componentType" : 5126,
            "count" : 139,
            "type" : "VEC2"
        },
        {
            "bufferView" : 22,
            "componentType" : 5123,
            "count" : 139,
            "normalized" : true,
            "type" : "VEC4"
        },
        {
            "bufferView" : 23,
            "componentType" : 5126,
            "count" : 3167,
            "max" : [
                151.22256469726562,
                18.807031631469727,
                0
            ],
            "min" : [
                0.24677734076976776,
                -8.299511909484863,
                -15
            ],
            "type" : "VEC3"
        },
        {
            "bufferView" : 24,
            "componentType" : 5126,
            "count" : 3167,
            "type" : "VEC3"
        },
        {
            "bufferView" : 25,
            "componentType" : 5126,
            "count" : 1619,
            "max" : [
                60.66826248168945,
                22.84638786315918,
                0
            ],
            "min" : [
                1.75341796875,
                -8.026758193969727,
                -15
            ],
            "type" : "VEC3"
        },
        {
            "bufferView" : 26,
            "componentType" : 5126,
            "count" : 1619,
            "type" : "VEC3"
        }
    ],
    "bufferViews" : [
        {
            "buffer" : 0,
            "byteLength" : 1668,
            "byteOffset" : 0
        },
        {
            "buffer" : 0,
            "byteLength" : 1668,
            "byteOffset" : 1668
        },
        {
            "buffer" : 0,
            "byteLength" : 1112,
            "byteOffset" : 3336
        },
        {
            "buffer" : 0,
            "byteLength" : 1112,
            "byteOffset" : 4448
        },
        {
            "buffer" : 0,
            "byteLength" : 408,
            "byteOffset" : 5560
        },
        {
            "buffer" : 0,
            "byteLength" : 38004,
            "byteOffset" : 5968
        },
        {
            "buffer" : 0,
            "byteLength" : 38004,
            "byteOffset" : 43972
        },
        {
            "buffer" : 0,
            "byteLength" : 15816,
            "byteOffset" : 81976
        },
        {
            "buffer" : 0,
            "byteLength" : 19428,
            "byteOffset" : 97792
        },
        {
            "buffer" : 0,
            "byteLength" : 19428,
            "byteOffset" : 117220
        },
        {
            "buffer" : 0,
            "byteLength" : 7944,
            "byteOffset" : 136648
        },
        {
            "buffer" : 0,
            "byteLength" : 1668,
            "byteOffset" : 144592
        },
        {
            "buffer" : 0,
            "byteLength" : 1668,
            "byteOffset" : 146260
        },
        {
            "buffer" : 0,
            "byteLength" : 1112,
            "byteOffset" : 147928
        },
        {
            "buffer" : 0,
            "byteLength" : 1112,
            "byteOffset" : 149040
        },
        {
            "buffer" : 0,
            "byteLength" : 38004,
            "byteOffset" : 150152
        },
        {
            "buffer" : 0,
            "byteLength" : 38004,
            "byteOffset" : 188156
        },
        {
            "buffer" : 0,
            "byteLength" : 19428,
            "byteOffset" : 226160
        },
        {
            "buffer" : 0,
            "byteLength" : 19428,
            "byteOffset" : 245588
        },
        {
            "buffer" : 0,
            "byteLength" : 1668,
            "byteOffset" : 265016
        },
        {
            "buffer" : 0,
            "byteLength" : 1668,
            "byteOffset" : 266684
        },
        {
            "buffer" : 0,
            "byteLength" : 1112,
            "byteOffset" : 268352
        },
        {
            "buffer" : 0,
            "byteLength" : 1112,
            "byteOffset" : 269464
        },
        {
            "buffer" : 0,
            "byteLength" : 38004,
            "byteOffset" : 270576
        },
        {
            "buffer" : 0,
            "byteLength" : 38004,
            "byteOffset" : 308580
        },
        {
            "buffer" : 0,
            "byteLength" : 19428,
            "byteOffset" : 346584
        },
        {
            "buffer" : 0,
            "byteLength" : 19428,
            "byteOffset" : 366012
        }
    ],
    "buffers" : [
        {
            "byteLength" : 385440,
            "uri" : "data:application/octet-stream;base64,"
        }
    ]
}
